<?xml version="1.0" standalone="no"?>
<!DOCTYPE svg PUBLIC "-//W3C//DTD SVG 20010904//EN"
 "http://www.w3.org/TR/2001/REC-SVG-20010904/DTD/svg10.dtd">
<svg version="1.0" xmlns="http://www.w3.org/2000/svg"
 width="300.000000pt" height="300.000000pt" viewBox="0 0 300.000000 300.000000"
 preserveAspectRatio="xMidYMid meet">
<metadata>
Created by potrace 1.11, written by Peter Selinger 2001-2013
</metadata>
<g transform="translate(0.000000,300.000000) scale(0.100000,-0.100000)"
fill="#000000" stroke="none">
<path d="M895 2990 c-31 -12 -64 -53 -75 -91 -6 -19 -10 -156 -10 -305 l0
-272 -97 -22 c-54 -12 -110 -29 -125 -36 -30 -15 -48 -63 -48 -126 l0 -38
-122 0 c-77 0 -132 -5 -148 -13 -34 -17 -81 -114 -89 -185 -9 -80 5 -167 35
-231 35 -71 60 -81 209 -81 l115 0 0 -90 0 -90 -115 0 c-149 0 -174 -10 -209
-81 -30 -64 -44 -151 -35 -231 8 -71 55 -168 89 -185 16 -8 71 -13 148 -13
l122 0 0 -37 c0 -64 18 -112 48 -127 15 -7 71 -24 125 -36 l97 -22 0 -272 c0
-149 5 -287 10 -307 5 -19 24 -48 41 -65 l30 -29 794 -3 c781 -2 794 -2 849
18 69 26 149 97 184 164 l27 51 3 424 c2 366 1 431 -13 480 -33 113 -87 182
-225 286 -49 38 -90 72 -90 75 0 3 41 37 90 75 138 104 192 173 225 286 14 49
15 114 13 480 l-3 424 -27 51 c-35 67 -115 138 -184 163 -54 21 -72 21 -837
20 -430 0 -791 -4 -802 -9z m1193 -595 c47 -60 57 -375 17 -552 -11 -48 -45
-54 -302 -51 l-238 3 -3 313 -2 312 254 0 255 0 19 -25z m-1268 -894 c0 -406
-2 -740 -5 -743 -3 -3 -47 4 -98 16 l-92 21 -3 88 -3 87 -154 0 -154 0 -20 28
c-47 67 -53 209 -12 290 l21 41 158 3 157 3 0 165 0 165 -157 3 -158 3 -21 41
c-41 81 -35 223 12 290 l20 28 154 0 154 0 3 87 3 88 90 21 c50 11 93 19 98
17 4 -2 7 -336 7 -742z m1250 -306 c16 -9 32 -25 35 -38 40 -177 30 -492 -17
-552 l-19 -25 -255 0 -254 0 0 308 c0 170 3 312 7 315 3 4 112 7 240 7 190 0
240 -3 263 -15z"/>
</g>
</svg>
